# Blender 5.0.0
# www.blender.org
mtllib scanner.mtl
o scanner
v 0.000000 -0.000000 -1.400000
v 0.000000 0.200000 -1.400000
v 1.212400 0.200000 -0.700000
v 1.212400 -0.000000 -0.700000
v 0.000000 0.200000 -1.000000
v 0.866000 0.200000 -0.500000
v 0.000000 -0.000000 -1.000000
v 0.866000 -0.000000 -0.500000
v 1.212400 0.200000 0.700000
v 1.212400 0.000000 0.700000
v 0.866000 0.200000 0.500000
v 0.866000 0.000000 0.500000
v 0.000000 0.200000 1.400000
v 0.000000 0.000000 1.400000
v 0.000000 0.200000 1.000000
v 0.000000 0.000000 1.000000
v -1.212400 0.200000 0.700000
v -1.212400 0.000000 0.700000
v -0.866000 0.200000 0.500000
v -0.866000 0.000000 0.500000
v -1.212400 0.200000 -0.700000
v -1.212400 -0.000000 -0.700000
v -0.866000 0.200000 -0.500000
v -0.866000 -0.000000 -0.500000
vn 0.5000 -0.0000 -0.8660
vn -0.0000 1.0000 -0.0000
vn -0.5000 -0.0000 0.8660
vn -0.0000 -1.0000 -0.0000
vn 1.0000 -0.0000 -0.0000
vn -1.0000 -0.0000 -0.0000
vn 0.5000 -0.0000 0.8660
vn -0.5000 -0.0000 -0.8660
vt 0.769400 0.046400
vt 0.769400 0.010000
vt 0.990000 0.010000
vt 0.990000 0.046400
vt 0.519500 0.230600
vt 0.446700 0.230600
vt 0.355700 0.073000
vt 0.392100 0.010000
vt 0.706400 0.068400
vt 0.706400 0.104800
vt 0.548800 0.104800
vt 0.548800 0.068400
vt 0.082800 0.701100
vt 0.010000 0.701100
vt 0.137400 0.480500
vt 0.173800 0.543600
vt 0.548800 0.163100
vt 0.548800 0.126700
vt 0.803500 0.126700
vt 0.803500 0.163100
vt 0.173800 0.073000
vt 0.137400 0.010000
vt 0.730800 0.185000
vt 0.730800 0.221400
vt 0.548900 0.221400
vt 0.548900 0.185000
vt 0.392100 0.480500
vt 0.355700 0.543600
vt 0.548800 0.046400
vt 0.548800 0.010000
vt 0.082800 0.230600
vt 0.010000 0.230600
vt 0.864000 0.068300
vt 0.864000 0.104700
vt 0.706400 0.104700
vt 0.706400 0.068300
vt 0.519500 0.701100
vt 0.446700 0.701100
vt 0.173800 0.388200
vt 0.137400 0.451200
vt 0.548900 0.104700
vt 0.548900 0.068300
vt 0.392100 0.921700
vt 0.355700 0.858700
vt 0.548900 0.163000
vt 0.548900 0.126700
vt 0.803600 0.126700
vt 0.803600 0.163000
vt 0.355700 0.388200
vt 0.392100 0.451200
vt 0.730700 0.185100
vt 0.730700 0.221500
vt 0.548800 0.221500
vt 0.548800 0.185100
vt 0.137400 0.921700
vt 0.173800 0.858700
vt 0.863900 0.068400
vt 0.863900 0.104800
s 1
usemtl scannermtl
f 1/1/1 2/2/1 3/3/1 4/4/1
f 2/5/2 5/6/2 6/7/2 3/8/2
f 5/9/3 7/10/3 8/11/3 6/12/3
f 7/13/4 1/14/4 4/15/4 8/16/4
f 4/17/5 3/18/5 9/19/5 10/20/5
f 3/8/2 6/7/2 11/21/2 9/22/2
f 6/23/6 8/24/6 12/25/6 11/26/6
f 8/16/4 4/15/4 10/27/4 12/28/4
f 10/29/7 9/30/7 13/2/7 14/1/7
f 9/22/2 11/21/2 15/31/2 13/32/2
f 11/33/8 12/34/8 16/35/8 15/36/8
f 12/28/4 10/27/4 14/37/4 16/38/4
f 14/1/3 13/2/3 17/3/3 18/4/3
f 13/32/2 15/31/2 19/39/2 17/40/2
f 15/36/1 16/35/1 20/41/1 19/42/1
f 16/38/4 14/37/4 18/43/4 20/44/4
f 18/45/6 17/46/6 21/47/6 22/48/6
f 17/40/2 19/39/2 23/49/2 21/50/2
f 19/51/5 20/52/5 24/53/5 23/54/5
f 20/44/4 18/43/4 22/55/4 24/56/4
f 22/29/8 21/30/8 2/2/8 1/1/8
f 21/50/2 23/49/2 5/6/2 2/5/2
f 23/57/7 24/58/7 7/10/7 5/9/7
f 24/56/4 22/55/4 1/14/4 7/13/4
